<svg width="27" height="27" viewBox="0 0 27 27" fill="none" xmlns="http://www.w3.org/2000/svg">
<path d="M9.06641 12.9921C9.06638 12.8181 9.03268 12.653 8.97156 12.5016L8.90149 12.3547C8.76025 12.1005 8.5381 11.901 8.27087 11.7864C8.00376 11.6719 7.70627 11.6487 7.42493 11.7215C7.14348 11.7944 6.89364 11.959 6.7157 12.1889C6.5378 12.4188 6.44146 12.7014 6.44141 12.9921L6.44568 13.1006C6.46653 13.3526 6.56006 13.5941 6.7157 13.7953C6.89364 14.0253 7.14347 14.1898 7.42493 14.2627C7.70627 14.3356 8.00375 14.3131 8.27087 14.1987C8.53812 14.0841 8.76024 13.8837 8.90149 13.6296L8.97156 13.4835C9.03255 13.3325 9.06641 13.1666 9.06641 12.9921ZM20.2039 18.407C19.8995 18.238 19.5406 18.1969 19.2058 18.2925C18.9128 18.3763 18.6592 18.5586 18.4872 18.8069L18.4188 18.9172C18.3351 19.0679 18.2821 19.2338 18.2625 19.4051C18.2428 19.5763 18.257 19.7495 18.3043 19.9152C18.3517 20.081 18.4312 20.2365 18.5385 20.3715C18.6456 20.5065 18.7783 20.6194 18.929 20.7031C19.0796 20.7867 19.2456 20.8398 19.4169 20.8594C19.588 20.8791 19.7614 20.8648 19.927 20.8176C20.0928 20.7702 20.2482 20.6906 20.3833 20.5834C20.5183 20.4762 20.6311 20.3436 20.7148 20.1929L20.7721 20.0759C20.8919 19.7986 20.9131 19.487 20.8293 19.194C20.7337 18.8592 20.5083 18.5762 20.2039 18.407ZM19.9321 5.19744C19.6008 5.10624 19.2465 5.14845 18.946 5.31536C18.6457 5.4823 18.4233 5.76086 18.3257 6.09038C18.2281 6.41998 18.2636 6.77458 18.4248 7.07818L18.4915 7.19097C18.5636 7.29925 18.6518 7.39625 18.7529 7.47893C18.8879 7.58927 19.0438 7.67209 19.2109 7.72161C19.3781 7.77108 19.5538 7.78677 19.7271 7.76775C19.9003 7.74867 20.0685 7.69514 20.2209 7.61053C20.3735 7.5258 20.5079 7.411 20.6157 7.27386C20.7234 7.13678 20.8027 6.97965 20.849 6.81158C20.8953 6.6434 20.9081 6.4676 20.8857 6.29461C20.8689 6.16476 20.8329 6.03823 20.7789 5.91949L20.7191 5.80413C20.5465 5.50683 20.2636 5.28875 19.9321 5.19744ZM10.3789 12.9921C10.3789 13.2199 10.3491 13.4414 10.2943 13.6526L17.6652 17.7482C17.9855 17.4111 18.3905 17.1604 18.8452 17.0304C19.5147 16.8392 20.2326 16.9214 20.8413 17.2595C21.45 17.5976 21.9001 18.1639 22.0914 18.8334C22.2588 19.4193 22.2167 20.0427 21.9769 20.5971L21.8616 20.8295C21.6941 21.1309 21.4694 21.397 21.1993 21.6114C20.9293 21.8258 20.6191 21.9849 20.2876 22.0796C19.9563 22.1743 19.6096 22.2026 19.2673 22.1634C18.9248 22.124 18.5929 22.0172 18.2915 21.8498C17.9902 21.6824 17.7248 21.4575 17.5105 21.1876C17.2961 20.9175 17.137 20.6073 17.0422 20.2758C16.9476 19.9445 16.9192 19.5979 16.9585 19.2555C16.9725 19.1335 16.9978 19.0133 17.0286 18.8949L9.65601 14.8002C9.41208 15.0569 9.11747 15.2639 8.78784 15.4052C8.25342 15.6342 7.65792 15.6793 7.09509 15.5334C6.53223 15.3874 6.03335 15.0584 5.67749 14.5986C5.3662 14.1961 5.18007 13.7131 5.13831 13.2092L5.12891 12.9921C5.12896 12.4107 5.32169 11.8455 5.67749 11.3857C6.03333 10.9258 6.53227 10.5977 7.09509 10.4517C7.65796 10.3058 8.25339 10.3508 8.78784 10.5799C9.11736 10.7211 9.41213 10.9275 9.65601 11.184L17.0363 7.08416C16.9273 6.63726 16.9343 6.16622 17.067 5.71783C17.2621 5.05876 17.7078 4.50255 18.3086 4.16863C18.9096 3.83477 19.618 3.74943 20.2808 3.93194C20.9435 4.11452 21.5086 4.55001 21.8539 5.14446L21.9735 5.37688C22.0814 5.61422 22.1536 5.86676 22.1871 6.12627C22.2319 6.47229 22.2072 6.82384 22.1145 7.16021C22.0218 7.49655 21.8627 7.81136 21.6471 8.08562C21.4315 8.35976 21.1633 8.58788 20.8584 8.75726C20.5535 8.92664 20.2182 9.03435 19.8715 9.07256C19.5246 9.11075 19.1729 9.07931 18.8384 8.98028C18.5039 8.88124 18.1924 8.71651 17.9224 8.49578C17.827 8.41784 17.7398 8.33124 17.6566 8.24114L10.2943 12.3307C10.3493 12.5421 10.3789 12.7637 10.3789 12.9921Z" fill="#4C4C4C"/>
</svg>
