<svg width="28" height="25" viewBox="0 0 28 25" fill="none" xmlns="http://www.w3.org/2000/svg">
<path d="M19.0575 10.3264H21.8229C21.928 10.3264 21.998 10.3264 22.068 10.3964C22.068 10.3964 22.068 10.3964 22.068 10.4314V24.1186C22.068 24.7137 22.6281 25.1338 23.2232 24.9588C24.5184 24.4337 26.1987 23.7686 27.4239 23.2085C27.6339 23.1035 27.9139 22.9985 27.9139 22.5784V10.4314C27.9139 10.4314 27.9139 10.3964 27.9139 10.3614C27.9139 10.3264 27.9139 10.3264 27.9139 10.3264V1.99502C27.9139 1.50494 27.5289 1.11987 27.0388 1.11987H24.9735C24.5884 1.11987 24.2733 1.36491 24.1333 1.71497C23.2932 4.06036 21.6829 5.81064 19.2675 6.23071C19.1625 6.23071 19.0575 6.26572 18.9175 6.26572C18.4624 6.33573 18.1473 6.68579 18.1473 7.14086V9.41623C18.1473 9.90631 18.5324 10.2914 19.0225 10.2914L19.0575 10.3264Z" fill="#D93A26"/>
<path d="M22.698 0.210034C22.593 0.105017 22.418 0 22.243 0H1.97465C1.34454 0 0.819458 0.455075 0.819458 1.05017V4.13068C0.819458 4.8658 0.959481 5.21585 1.86963 5.21585H8.62574C8.80077 5.21585 8.94079 5.35588 8.94079 5.53091V8.12133V22.5437C8.94079 22.8587 9.15082 23.1038 9.46588 23.2438C10.061 23.4888 12.1263 24.504 12.8264 24.8891C13.5265 25.2741 14.7517 24.609 14.7517 23.6289V6.02099C14.7517 5.98598 14.7517 5.88096 14.7517 5.88096C14.7167 5.63592 14.7517 5.39088 14.9968 5.28587C15.0668 5.28587 15.1018 5.28587 15.1718 5.28587H17.3772C22.208 4.83079 22.698 1.08518 22.733 0.665109C22.733 0.665109 22.733 0.630103 22.733 0.595098V0.490081C22.733 0.385064 22.733 0.315052 22.628 0.24504L22.698 0.210034Z" fill="#D93A26"/>
</svg>
