<svg width="24" height="24" viewBox="0 0 24 24" fill="none" xmlns="http://www.w3.org/2000/svg">
<g clip-path="url(#clip0_8299_11876)">
<path d="M7.33592 19H9.78036V13.9062C9.78036 13.354 10.2281 12.9062 10.7804 12.9062H13.2248C13.7771 12.9062 14.2248 13.354 14.2248 13.9062V19H16.6692C17.7738 19 18.6693 18.1046 18.6693 17V14.5469L18.7147 9.50781L13.2709 5.04072C12.5335 4.43567 11.4715 4.43551 10.734 5.04032L5.33592 9.46699V14.5469V17C5.33592 18.1046 6.23135 19 7.33592 19Z" fill="#4C4C4C"/>
<path d="M9.78036 19V19.5C10.0565 19.5 10.2804 19.2761 10.2804 19H9.78036ZM14.2248 19H13.7248C13.7248 19.2761 13.9487 19.5 14.2248 19.5V19ZM10.734 5.04032L10.4169 4.6537L10.734 5.04032ZM13.2709 5.04072L12.9537 5.42725V5.42725L13.2709 5.04072ZM18.7147 9.50781L19.0319 9.12129V9.12129L18.7147 9.50781ZM18.6693 14.5469L18.1693 14.5424V14.5469H18.6693ZM9.78036 19V18.5H7.33592V19V19.5H9.78036V19ZM9.78036 19H10.2804V13.9062H9.78036H9.28036V19H9.78036ZM10.7804 12.9062V13.4062H13.2248V12.9062V12.4062H10.7804V12.9062ZM14.2248 13.9062H13.7248V19H14.2248H14.7248V13.9062H14.2248ZM4 10.5625L4.31705 10.9491L5.65297 9.85361L5.33592 9.46699L5.01887 9.08036L3.68295 10.1759L4 10.5625ZM5.33592 9.46699L5.65297 9.85361L11.051 5.42695L10.734 5.04032L10.4169 4.6537L5.01887 9.08036L5.33592 9.46699ZM13.2709 5.04072L12.9537 5.42725L18.3975 9.89434L18.7147 9.50781L19.0319 9.12129L13.588 4.6542L13.2709 5.04072ZM18.7147 9.50781L18.3975 9.89434L19.6828 10.949L20 10.5625L20.3172 10.176L19.0319 9.12129L18.7147 9.50781ZM5.33592 17H5.83592V14.5469H5.33592H4.83592V17H5.33592ZM5.33592 14.5469H5.83592V9.46699H5.33592H4.83592V14.5469H5.33592ZM18.7147 9.50781L18.2147 9.5033L18.1693 14.5424L18.6693 14.5469L19.1692 14.5514L19.2147 9.51232L18.7147 9.50781ZM14.2248 19V19.5H16.6692V19V18.5H14.2248V19ZM18.6693 17H19.1693V14.5469H18.6693H18.1693V17H18.6693ZM13.2248 12.9062V13.4062C13.5009 13.4062 13.7248 13.6301 13.7248 13.9062H14.2248H14.7248C14.7248 13.0778 14.0532 12.4062 13.2248 12.4062V12.9062ZM9.78036 13.9062H10.2804C10.2804 13.6301 10.5042 13.4062 10.7804 13.4062V12.9062V12.4062C9.95193 12.4062 9.28036 13.0778 9.28036 13.9062H9.78036ZM16.6692 19V19.5C18.05 19.5 19.1693 18.3807 19.1693 17H18.6693H18.1693C18.1693 17.8284 17.4977 18.5 16.6692 18.5V19ZM10.734 5.04032L11.051 5.42695C11.6042 4.97334 12.4007 4.97346 12.9537 5.42725L13.2709 5.04072L13.588 4.6542C12.6664 3.89788 11.3388 3.89768 10.4169 4.6537L10.734 5.04032ZM7.33592 19V18.5C6.50749 18.5 5.83592 17.8284 5.83592 17H5.33592H4.83592C4.83592 18.3807 5.95521 19.5 7.33592 19.5V19Z" fill="#4C4C4C"/>
</g>
<defs>
<clipPath id="clip0_8299_11876">
<rect width="24" height="24" fill="white"/>
</clipPath>
</defs>
</svg>
