<svg width="24" height="24" viewBox="0 0 24 24" fill="none" xmlns="http://www.w3.org/2000/svg">
<path d="M9.63577 10.3143C9.48997 10.1824 9.29705 10.115 9.10083 10.1274C8.90461 10.1399 8.72175 10.2311 8.59379 10.3804L4.75269 14.8617L4.77545 15.9545V16.6878L6 18.5H6.5H14.8173H18L19.5001 13.1874L19.4607 12.6562V11.2876L14.8173 15.0024L9.63577 10.3143Z" fill="#4C4C4C"/>
<path d="M14.8001 11.9503L15.0562 11.9624C16.3506 11.9624 17.416 10.9791 17.5441 9.71843L17.5562 9.4624C17.5561 8.16806 16.5727 7.10395 15.3122 6.97581L15.0562 6.9624C13.6755 6.96251 12.5563 8.08174 12.5562 9.4624L12.5696 9.71843C12.6891 10.8948 13.6238 11.8306 14.8001 11.9503Z" fill="#4C4C4C"/>
<path d="M17.375 18.3311V19.5H6.75V18.3311H17.375ZM18.3311 17.375V6.75C18.3311 6.22188 17.9031 5.79395 17.375 5.79395H6.75C6.22188 5.79395 5.79395 6.22188 5.79395 6.75V17.375C5.79395 17.9031 6.22188 18.3311 6.75 18.3311V19.5L6.5332 19.4893C5.46142 19.3807 4.625 18.4754 4.625 17.375V6.75C4.625 5.5764 5.5764 4.625 6.75 4.625H17.375C18.5486 4.625 19.5 5.5764 19.5 6.75V17.375C19.5 18.5486 18.5486 19.5 17.375 19.5V18.3311C17.9031 18.3311 18.3311 17.9031 18.3311 17.375Z" fill="#4C4C4C"/>
</svg>
