<svg width="24" height="24" viewBox="0 0 24 24" fill="none" xmlns="http://www.w3.org/2000/svg">
<path d="M7.5 8.5C7.5 8.5 5 8.6 5 11C5 13.144 6.33007 13.3515 7.20792 13.4781C7.31274 13.4932 7.41111 13.5 7.5 13.5H9.5V8.5H7.5Z" fill="#4C4C4C"/>
<path d="M9.5 13.5C9.27067 13.5 9.69941 13.5 9.5 13.5ZM9.5 13.5C7.96039 13.5 7.64756 13.5 7.5 13.5C7.41111 13.5 7.31274 13.4932 7.20792 13.4781C6.33007 13.3515 5 13.144 5 11C5 8.6 7.5 8.5 7.5 8.5H9.5V13.5Z" stroke="#4C4C4C" stroke-linejoin="round"/>
<path d="M10.1189 18.9999H8.85464C8.3625 18.9999 7.94353 18.6419 7.86685 18.1557L7.3457 14.8516H10.1371L11.0689 17.6878C11.2814 18.3345 10.7996 18.9999 10.1189 18.9999Z" fill="#4C4C4C" stroke="#4C4C4C" stroke-linejoin="round"/>
<path d="M18.5 8.5V4.5C15.5975 6.435 12.695 7.53796 11 8.07719V14.0459C13.1296 14.4039 16.8082 16.7696 18.5 18V14V8.5Z" fill="#4C4C4C" stroke="#4C4C4C" stroke-linejoin="round"/>
</svg>
