<svg width="24" height="24" viewBox="0 0 24 24" fill="none" xmlns="http://www.w3.org/2000/svg">
<g clip-path="url(#clip0_8372_12393)">
<circle cx="12" cy="12" r="9" fill="#4C4C4C"/>
<path d="M12 16.9888C11.6794 16.9888 11.4275 16.7424 11.4275 16.4289V16.1153C11.0725 16.0705 10.7519 15.9922 10.4542 15.869C10.0191 15.6786 9.67557 15.4099 9.42366 15.0739C9.17176 14.738 9.03435 14.3348 9 13.8869C9 13.8533 9 13.8197 9.03435 13.7973C9.05725 13.7749 9.0916 13.7637 9.1145 13.7637H10.1107C10.1679 13.7637 10.2252 13.8085 10.2252 13.8645C10.2481 14.1333 10.3397 14.3572 10.5 14.5364C10.6603 14.7156 10.8779 14.8499 11.1298 14.9283C11.2214 14.9619 11.313 14.9843 11.416 15.0067V12.3191L11.3244 12.2968C10.6832 12.1176 10.1679 11.86 9.79008 11.5241C9.40076 11.1769 9.20611 10.7178 9.20611 10.1579C9.20611 9.69877 9.33206 9.29563 9.59542 8.94849C9.84733 8.60134 10.2023 8.33259 10.626 8.15342C10.8664 8.04143 11.1412 7.96305 11.416 7.91825V7.55991C11.416 7.24636 11.6679 7 11.9885 7C12.3092 7 12.5611 7.24636 12.5611 7.55991V7.89586C12.8931 7.94065 13.2023 8.01904 13.4771 8.14222C13.8893 8.33259 14.2328 8.59015 14.4733 8.91489C14.7252 9.23964 14.8511 9.62038 14.874 10.0347C14.874 10.0683 14.874 10.0907 14.8397 10.1131C14.8168 10.1355 14.7939 10.1467 14.7595 10.1467H13.8206C13.7634 10.1467 13.7176 10.1019 13.7061 10.0459C13.6603 9.68757 13.4885 9.41881 13.1908 9.22844C13.0076 9.11646 12.8015 9.02688 12.5611 8.98208V11.5017L12.6527 11.5241C12.8588 11.5801 13.0992 11.6585 13.3626 11.748C13.626 11.8376 13.8779 11.9832 14.1298 12.1512C14.3817 12.3191 14.5878 12.5431 14.7481 12.8007C14.9084 13.0694 15 13.4054 15 13.7861C15 14.234 14.874 14.6372 14.645 14.9955C14.4046 15.3539 14.0611 15.645 13.6145 15.8466C13.3168 15.9922 12.9618 16.0817 12.584 16.1265V16.4401C12.584 16.7536 12.3321 17 12.0115 17L12 16.9888ZM12.5725 15.0179C12.6985 14.9955 12.8244 14.9507 12.9389 14.9059C13.2137 14.794 13.4313 14.6372 13.5916 14.4468C13.7405 14.2564 13.8206 14.0213 13.8206 13.7637C13.8206 13.5286 13.7519 13.3494 13.626 13.2038C13.4885 13.0582 13.3053 12.9351 13.0763 12.8343C12.916 12.7671 12.7443 12.6999 12.5611 12.6439V15.0067L12.5725 15.0179ZM11.4275 9.00448C11.3359 9.02688 11.2443 9.06047 11.1527 9.09407C10.9122 9.19485 10.7176 9.34043 10.5802 9.5196C10.4427 9.69877 10.3855 9.88914 10.3855 10.1243C10.3855 10.3147 10.4313 10.4714 10.5229 10.6058C10.6145 10.7402 10.7405 10.8522 10.8893 10.9418C11.0382 11.0314 11.2099 11.1097 11.3702 11.1769L11.4275 11.1993V9.01568V9.00448Z" fill="white"/>
</g>
<defs>
<clipPath id="clip0_8372_12393">
<rect width="18" height="18" fill="white" transform="translate(3 3)"/>
</clipPath>
</defs>
</svg>
