<svg width="24" height="24" viewBox="0 0 24 24" fill="none" xmlns="http://www.w3.org/2000/svg">
<path d="M11.7485 5C13.6814 5.0002 15.2485 6.56713 15.2485 8.5C15.2485 9.71216 14.6311 10.7791 13.6948 11.4072L15.9683 12.252C16.7965 12.5596 17.4784 13.1688 17.8774 13.957C18.3975 14.9847 18.2027 16.2353 17.27 16.9111C15.9655 17.8564 13.9354 18.9999 11.7485 19C9.75994 19 7.90085 18.0541 6.59912 17.1719C5.4469 16.3909 5.28564 14.8456 6.0415 13.6768C6.44111 13.0589 7.00816 12.5672 7.67627 12.2588L9.68896 11.3291C8.81605 10.6926 8.24854 9.66301 8.24854 8.5C8.24854 6.567 9.81554 5 11.7485 5Z" fill="#4C4C4C"/>
</svg>
