<svg width="24" height="24" viewBox="0 0 24 24" fill="none" xmlns="http://www.w3.org/2000/svg">
<path d="M19.0342 3.5C19.8626 3.50001 20.5342 4.17158 20.5342 5V11.1738C20.5341 11.5427 20.3983 11.8989 20.1523 12.1738L13.4785 19.6328C12.95 20.2235 12.0527 20.3007 11.4307 19.8096L4.56348 14.3887C3.88234 13.8508 3.79871 12.8487 4.38086 12.2051L11.8105 3.99316C12.0949 3.67916 12.4992 3.5 12.9229 3.5H19.0342ZM16.3672 6.77832C15.8764 6.77843 15.4785 7.17614 15.4785 7.66699C15.4787 8.15772 15.8764 8.55556 16.3672 8.55566C16.858 8.55566 17.2557 8.15779 17.2559 7.66699C17.2559 7.17607 16.8581 6.77832 16.3672 6.77832Z" fill="#4C4C4C"/>
</svg>
