<svg width="24" height="24" viewBox="0 0 24 24" fill="none" xmlns="http://www.w3.org/2000/svg">
<path d="M18 4.5C19.3807 4.5 20.5 5.61929 20.5 7V10C20.5 10.2098 20.3688 10.3975 20.1719 10.4697C19.9436 10.5534 19.7025 10.6468 19.5059 10.8486C19.3251 11.0342 19.1367 11.3614 19.1367 12C19.1367 13.2698 19.8654 13.5 20 13.5C20.2761 13.5 20.5 13.7239 20.5 14V17C20.5 18.3807 19.3807 19.5 18 19.5H7C5.61929 19.5 4.5 18.3807 4.5 17V14L4.50586 13.9229C4.53352 13.7453 4.6557 13.5935 4.82812 13.5303C5.05636 13.4466 5.29746 13.3532 5.49414 13.1514C5.67492 12.9658 5.86328 12.6386 5.86328 12C5.86328 11.3599 5.60055 10.9912 5.35254 10.7734C5.22311 10.6599 5.09224 10.5832 4.99512 10.5361C4.94727 10.513 4.90895 10.4973 4.88477 10.4883C4.87321 10.484 4.86453 10.4818 4.86035 10.4805C4.85912 10.4801 4.8578 10.4796 4.85742 10.4795H4.8584L4.86035 10.4805H4.86133C4.64734 10.4187 4.5 10.2228 4.5 10V7C4.5 5.61929 5.61929 4.5 7 4.5H18ZM15 12C13.8954 12 13 12.8954 13 14C13 15.1046 13.8954 16 15 16C16.1046 16 17 15.1046 17 14C17 12.8954 16.1046 12 15 12ZM15.5996 7.7002C15.3788 7.53465 15.0661 7.57915 14.9004 7.7998L9.5 15C9.33437 15.2209 9.37878 15.5345 9.59961 15.7002C9.82052 15.8659 10.1341 15.8205 10.2998 15.5996L15.7002 8.39941C15.8655 8.17852 15.8204 7.86577 15.5996 7.7002ZM15 13C15.5523 13 16 13.4477 16 14C16 14.5523 15.5523 15 15 15C14.4477 15 14 14.5523 14 14C14 13.4477 14.4477 13 15 13ZM10 7C8.89543 7 8 7.89543 8 9C8 10.1046 8.89543 11 10 11C11.1046 11 12 10.1046 12 9C12 7.89543 11.1046 7 10 7ZM10 8C10.5523 8 11 8.44772 11 9C11 9.55228 10.5523 10 10 10C9.44772 10 9 9.55228 9 9C9 8.44772 9.44772 8 10 8Z" fill="#4C4C4C"/>
</svg>
