<svg width="24" height="24" viewBox="0 0 24 24" fill="none" xmlns="http://www.w3.org/2000/svg">
<path d="M16.5401 8.5H15V15C15.3333 14.6667 16.2 14.1 17 14.5C17.7186 14.8593 18.179 15.2186 18.3812 15.7634C18.5253 16.1518 18.8358 16.5 19.25 16.5C19.6642 16.5 20 16.1642 20 15.75V12.3699C20 12.1312 19.9146 11.9004 19.7593 11.7191L17.2993 8.84921C17.1093 8.62756 16.832 8.5 16.5401 8.5Z" fill="#4C4C4C" stroke="#4C4C4C" stroke-linecap="round"/>
<path d="M14 16.5H10.5C9.94772 16.5 9.51378 16.0309 9.27039 15.5352C9.00597 14.9966 8.47645 14.5 7.5 14.5C6.23925 14.5 5.72357 15.3279 5.56157 16.0051C5.49733 16.2737 5.27614 16.5 5 16.5C4.72386 16.5 4.5 16.2761 4.5 16V6.5C4.5 5.94772 4.94772 5.5 5.5 5.5H13C13.5523 5.5 14 5.94771 14 6.5V16.5Z" fill="#4C4C4C"/>
<path d="M14 16.5H10.5C9.94772 16.5 9.51378 16.0309 9.27039 15.5352C9.00597 14.9966 8.47645 14.5 7.5 14.5C6.23925 14.5 5.72357 15.3279 5.56157 16.0051C5.49733 16.2737 5.27614 16.5 5 16.5V16.5C4.72386 16.5 4.5 16.2761 4.5 16V6.5C4.5 5.94772 4.94772 5.5 5.5 5.5H13C13.5523 5.5 14 5.94771 14 6.5V16.5ZM14 16.5H14.5" stroke="#4C4C4C" stroke-linecap="round"/>
<circle cx="16.5" cy="16.5" r="2" stroke="#4C4C4C"/>
<circle cx="7.5" cy="16.5" r="2" stroke="#4C4C4C"/>
</svg>
