<svg width="24" height="24" viewBox="0 0 24 24" fill="none" xmlns="http://www.w3.org/2000/svg">
<g clip-path="url(#clip0_8277_11641)">
<path d="M3.68295 11.1759C3.46942 11.351 3.43827 11.666 3.61338 11.8796C3.78848 12.0931 4.10352 12.1242 4.31705 11.9491L3.68295 11.1759ZM19.6828 11.949C19.8963 12.1242 20.2114 12.0931 20.3865 11.8797C20.5617 11.6662 20.5306 11.3511 20.3172 11.176L19.6828 11.949ZM9.78036 20V20.5C10.0565 20.5 10.2804 20.2761 10.2804 20H9.78036ZM14.2248 20H13.7248C13.7248 20.2761 13.9487 20.5 14.2248 20.5V20ZM5.33592 10.467H5.83592V9.41034L5.01887 10.0804L5.33592 10.467ZM18.6693 15.5469L18.1693 15.5424V15.5469H18.6693ZM18.7147 10.5078L19.0319 10.1213L18.2241 9.45848L18.2147 10.5033L18.7147 10.5078ZM9.78036 20V19.5H7.33592V20V20.5H9.78036V20ZM9.78036 20H10.2804V14.9062H9.78036H9.28036V20H9.78036ZM10.7804 13.9062V14.4062H13.2248V13.9062V13.4062H10.7804V13.9062ZM14.2248 14.9062H13.7248V20H14.2248H14.7248V14.9062H14.2248ZM4 11.5625L4.31705 11.9491L11.051 6.42695L10.734 6.04032L10.4169 5.6537L3.68295 11.1759L4 11.5625ZM13.2709 6.04072L12.9537 6.42725L19.6828 11.949L20 11.5625L20.3172 11.176L13.588 5.6542L13.2709 6.04072ZM5.33592 18H5.83592V15.5469H5.33592H4.83592V18H5.33592ZM5.33592 15.5469H5.83592V10.467H5.33592H4.83592V15.5469H5.33592ZM5.33592 10.467L5.01887 10.0804L3.68295 11.1759L4 11.5625L4.31705 11.9491L5.65297 10.8536L5.33592 10.467ZM20 11.5625L20.3172 11.176L19.0319 10.1213L18.7147 10.5078L18.3975 10.8943L19.6828 11.949L20 11.5625ZM18.7147 10.5078L18.2147 10.5033L18.1693 15.5424L18.6693 15.5469L19.1692 15.5514L19.2147 10.5123L18.7147 10.5078ZM14.2248 20V20.5H16.6692V20V19.5H14.2248V20ZM18.6693 18H19.1693V15.5469H18.6693H18.1693V18H18.6693ZM13.2248 13.9062V14.4062C13.5009 14.4062 13.7248 14.6301 13.7248 14.9062H14.2248H14.7248C14.7248 14.0778 14.0532 13.4062 13.2248 13.4062V13.9062ZM9.78036 14.9062H10.2804C10.2804 14.6301 10.5042 14.4062 10.7804 14.4062V13.9062V13.4062C9.95193 13.4062 9.28036 14.0778 9.28036 14.9062H9.78036ZM16.6692 20V20.5C18.05 20.5 19.1693 19.3807 19.1693 18H18.6693H18.1693C18.1693 18.8284 17.4977 19.5 16.6692 19.5V20ZM10.734 6.04032L11.051 6.42695C11.6042 5.97334 12.4007 5.97346 12.9537 6.42725L13.2709 6.04072L13.588 5.6542C12.6664 4.89788 11.3388 4.89768 10.4169 5.6537L10.734 6.04032ZM7.33592 20V19.5C6.50749 19.5 5.83592 18.8284 5.83592 18H5.33592H4.83592C4.83592 19.3807 5.95521 20.5 7.33592 20.5V20Z" fill="#4C4C4C"/>
</g>
<defs>
<clipPath id="clip0_8277_11641">
<rect width="24" height="24" fill="white"/>
</clipPath>
</defs>
</svg>
