<svg width="24" height="24" viewBox="0 0 24 24" fill="none" xmlns="http://www.w3.org/2000/svg">
<path d="M9.63577 10.3143C9.48997 10.1824 9.29705 10.115 9.10083 10.1274C8.90461 10.1399 8.72175 10.2311 8.59379 10.3804L4.75269 14.8617L4.77545 15.9545V16.6878L6.99428 14.1126L9.2131 11.5373L15 16.5L15.7813 15.8437L19.5001 13.1874L19.4607 12.6562V11.2876L14.8173 15.0024L9.63577 10.3143Z" fill="#4C4C4C"/>
<path d="M16.3899 9.4624C16.3898 8.72605 15.7925 8.12862 15.0562 8.12862C14.3199 8.12873 13.7225 8.72612 13.7224 9.4624C13.7224 10.1988 14.3198 10.7961 15.0562 10.7962V11.9624L14.8001 11.9503C13.6238 11.8306 12.6891 10.8948 12.5696 9.71843L12.5562 9.4624C12.5563 8.08174 13.6755 6.96251 15.0562 6.9624L15.3122 6.97581C16.5727 7.10395 17.5561 8.16806 17.5562 9.4624L17.5441 9.71843C17.416 10.9791 16.3506 11.9624 15.0562 11.9624V10.7962C15.7926 10.7962 16.3899 10.1988 16.3899 9.4624Z" fill="#4C4C4C"/>
<path d="M17.375 18.3311V19.5H6.75V18.3311H17.375ZM18.3311 17.375V6.75C18.3311 6.22188 17.9031 5.79395 17.375 5.79395H6.75C6.22188 5.79395 5.79395 6.22188 5.79395 6.75V17.375C5.79395 17.9031 6.22188 18.3311 6.75 18.3311V19.5L6.5332 19.4893C5.46142 19.3807 4.625 18.4754 4.625 17.375V6.75C4.625 5.5764 5.5764 4.625 6.75 4.625H17.375C18.5486 4.625 19.5 5.5764 19.5 6.75V17.375C19.5 18.5486 18.5486 19.5 17.375 19.5V18.3311C17.9031 18.3311 18.3311 17.9031 18.3311 17.375Z" fill="#4C4C4C"/>
</svg>
