<svg width="24" height="24" viewBox="0 0 24 24" fill="none" xmlns="http://www.w3.org/2000/svg">
<path d="M9.5 8.5H7.5C7.5 8.5 5 8.6 5 11C5 13.144 6.33007 13.8515 7.20792 13.9781M9.5 8.5C9.5 8.5 14 7.5 18.5 4.5V8.5V14V18C16.6667 16.6667 12.5 14 10.5 14C10.2707 14 10.0567 14 9.85727 14M9.5 8.5V13.5M7.20792 13.9781C7.31274 13.9932 7.41111 14 7.5 14C7.64756 14 8.31766 14 9.85727 14M7.20792 13.9781L7.86685 18.1558C7.94352 18.6419 8.3625 19 8.85464 19H10.1189C10.7996 19 11.2814 18.3346 11.0689 17.6879L9.85727 14" stroke="#4C4C4C" stroke-linejoin="round"/>
</svg>
