<svg width="24" height="24" viewBox="0 0 24 24" fill="none" xmlns="http://www.w3.org/2000/svg">
<g clip-path="url(#clip0_8372_12386)">
<path d="M12 3C16.959 3 21 6.8165 21 11.5C21 16.1835 16.959 20 12 20C7.041 20 3 16.1835 3 11.5C3 6.8165 7.041 3 12 3ZM12 4.01953C7.635 4.01953 4.08008 7.3775 4.08008 11.5C4.08008 15.6225 7.635 18.9805 12 18.9805C16.365 18.9805 19.9199 15.6225 19.9199 11.5C19.9199 7.3775 16.365 4.01953 12 4.01953ZM12.3242 6.4541C12.6447 6.4541 12.8973 6.70028 12.8975 7.01367V7.34961C13.2294 7.39441 13.5388 7.47355 13.8135 7.59668C14.2255 7.78703 14.5692 8.04452 14.8096 8.36914C15.0613 8.69383 15.1871 9.07503 15.21 9.48926C15.21 9.5226 15.21 9.54509 15.1758 9.56738C15.1529 9.58972 15.1299 9.60054 15.0957 9.60059H14.1562C14.0991 9.60043 14.0534 9.55589 14.042 9.5C13.9962 9.14167 13.8241 8.87298 13.5264 8.68262C13.3434 8.57079 13.1376 8.48133 12.8975 8.43652V10.9561L12.9883 10.9785C13.1943 11.0345 13.435 11.1126 13.6982 11.2021C13.9616 11.2917 14.2139 11.4375 14.4658 11.6055C14.7177 11.7734 14.9237 11.9974 15.084 12.2549C15.2443 12.5236 15.3359 12.8595 15.3359 13.2402C15.3359 13.6879 15.2102 14.091 14.9814 14.4492C14.741 14.8076 14.3968 15.0992 13.9502 15.3008C13.6525 15.4463 13.2977 15.5363 12.9199 15.5811V15.8945C12.9197 16.2078 12.668 16.454 12.3477 16.4541L12.3359 16.4434C12.0153 16.4434 11.7637 16.1964 11.7637 15.8828V15.5693C11.4087 15.5245 11.0877 15.4464 10.79 15.3232C10.3551 15.1329 10.0117 14.8641 9.75977 14.5283C9.50786 14.1924 9.37029 13.7887 9.33594 13.3408C9.33594 13.3073 9.33583 13.2733 9.37012 13.251C9.39294 13.2287 9.42734 13.2179 9.4502 13.2178H10.4463C10.5035 13.2178 10.5614 13.2625 10.5615 13.3184C10.5844 13.587 10.6757 13.8111 10.8359 13.9902C10.9962 14.1694 11.2139 14.3044 11.4658 14.3828C11.5573 14.4164 11.649 14.4386 11.752 14.4609V11.7734L11.6602 11.751C11.0191 11.5718 10.5038 11.3144 10.126 10.9785C9.73673 10.6314 9.54206 10.1721 9.54199 9.6123C9.54199 9.15318 9.66828 8.74949 9.93164 8.40234C10.1835 8.05534 10.5384 7.78654 10.9619 7.60742C11.2024 7.49545 11.4772 7.41686 11.752 7.37207V7.01367C11.7521 6.70037 12.0039 6.45424 12.3242 6.4541ZM12.8975 14.4609L12.9082 14.4717C13.034 14.4493 13.16 14.4051 13.2744 14.3604C13.5491 14.2484 13.7674 14.0917 13.9277 13.9014C14.0766 13.711 14.1562 13.4753 14.1562 13.2178C14.1562 12.9827 14.0878 12.8037 13.9619 12.6582C13.8245 12.5126 13.6411 12.3889 13.4121 12.2881C13.252 12.221 13.0805 12.1536 12.8975 12.0977V14.4609ZM11.7637 8.45898C11.6721 8.48138 11.5799 8.51426 11.4883 8.54785C11.2479 8.64863 11.0534 8.79451 10.916 8.97363C10.7787 9.15273 10.7217 9.34309 10.7217 9.57812C10.7217 9.76828 10.767 9.92529 10.8584 10.0596C10.95 10.1939 11.0767 10.3059 11.2256 10.3955C11.3744 10.485 11.5458 10.5637 11.7061 10.6309L11.7637 10.6533V8.45898Z" fill="#4C4C4C"/>
</g>
<defs>
<clipPath id="clip0_8372_12386">
<rect width="18" height="17" fill="white" transform="translate(3 3)"/>
</clipPath>
</defs>
</svg>
