<svg width="25" height="24" viewBox="0 0 25 24" fill="none" xmlns="http://www.w3.org/2000/svg">
<path d="M12 5C13.933 5 15.5 6.567 15.5 8.5C15.5 9.71217 14.8835 10.7801 13.9473 11.4082L16.2207 12.252C16.9972 12.5404 17.6451 13.0939 18.0518 13.8115L18.1299 13.957C18.65 14.9847 18.4551 16.2353 17.5225 16.9111C16.2178 17.8566 14.1872 19 12 19C10.0113 19 8.15232 18.0542 6.85059 17.1719C5.69839 16.3909 5.53809 14.8456 6.29395 13.6768L6.45117 13.4512C6.83643 12.939 7.34328 12.5286 7.92773 12.2588L9.94141 11.3291C9.06827 10.6927 8.5 9.66318 8.5 8.5C8.5 6.567 10.067 5 12 5ZM10.8242 12.125C10.6797 12.125 10.5365 12.1563 10.4053 12.2168L8.34766 13.167C7.85142 13.396 7.42961 13.7608 7.13281 14.2197C6.61063 15.0272 6.79767 15.9288 7.41113 16.3447C8.65012 17.1845 10.3072 18 12 18C13.867 18 15.6841 17.0075 16.9355 16.1006C17.4026 15.7619 17.5752 15.0771 17.2373 14.4092C16.952 13.8454 16.4644 13.4094 15.8721 13.1895L13.1738 12.1875C13.0624 12.1461 12.944 12.125 12.8252 12.125H10.8242ZM12 6C10.6193 6 9.5 7.11929 9.5 8.5C9.5 9.88071 10.6193 11 12 11C13.3807 11 14.5 9.88071 14.5 8.5C14.5 7.11929 13.3807 6 12 6Z" fill="#4C4C4C"/>
</svg>
