<svg width="24" height="24" viewBox="0 0 24 24" fill="none" xmlns="http://www.w3.org/2000/svg">
<g clip-path="url(#clip0_8277_12366)">
<path d="M5 5H5.70421C6.7616 5 7.63629 5.82308 7.70052 6.87852L7.70791 7M7.70791 7H18.9652C19.5309 7 19.9821 7.46835 19.9376 8.0323C19.8701 8.89049 19.736 10.1108 19.4828 11C19.2017 11.9868 18.5725 13.2733 18.2074 13.9794C18.0404 14.3026 17.7053 14.5 17.3415 14.5H9.50636C9.0008 14.5 8.57477 14.1227 8.51369 13.6208L7.70791 7Z" stroke="#4C4C4C" stroke-linecap="round"/>
<path d="M16.897 15.5C17.7794 15.5002 18.4653 16.1875 18.4653 17C18.4653 17.8125 17.7794 18.4998 16.897 18.5C16.0143 18.5 15.3276 17.8126 15.3276 17C15.3276 16.1874 16.0143 15.5 16.897 15.5Z" stroke="#4C4C4C"/>
<path d="M9.65552 15.5C10.538 15.5002 11.2239 16.1875 11.2239 17C11.2239 17.8125 10.538 18.4998 9.65552 18.5C8.77289 18.5 8.08618 17.8126 8.08618 17C8.08618 16.1874 8.77289 15.5 9.65552 15.5Z" stroke="#4C4C4C"/>
</g>
<defs>
<clipPath id="clip0_8277_12366">
<rect width="24" height="24" fill="white"/>
</clipPath>
</defs>
</svg>
