<svg width="24" height="24" viewBox="0 0 24 24" fill="none" xmlns="http://www.w3.org/2000/svg">
<path d="M5 10H4.5C4.5 10.2229 4.64755 10.4189 4.86177 10.4805L5 10ZM20 10L20.1721 10.4694C20.3691 10.3972 20.5 10.2098 20.5 10H20ZM20 14H20.5C20.5 13.7239 20.2761 13.5 20 13.5V14ZM5 14L4.82787 13.5306C4.63093 13.6028 4.5 13.7902 4.5 14H5ZM5 10H5.5V7H5H4.5V10H5ZM7 5V5.5H18V5V4.5H7V5ZM20 7H19.5V10H20H20.5V7H20ZM20 10L19.8279 9.53056C19.6017 9.61349 19.1609 9.76983 18.7896 10.1511C18.4022 10.5489 18.1364 11.1386 18.1364 12H18.6364H19.1364C19.1364 11.3614 19.3251 11.0345 19.5059 10.8489C19.7027 10.6468 19.9438 10.5532 20.1721 10.4694L20 10ZM18.6364 12H18.1364C18.1364 13.7302 19.2255 14.5 20 14.5V14V13.5C19.8654 13.5 19.1364 13.2698 19.1364 12H18.6364ZM20 14H19.5V17H20H20.5V14H20ZM18 19V18.5H7V19V19.5H18V19ZM5 17H5.5V14H5H4.5V17H5ZM5 14L5.17213 14.4694C5.39831 14.3865 5.83905 14.2302 6.21045 13.8489C6.59785 13.4511 6.86364 12.8614 6.86364 12H6.36364H5.86364C5.86364 12.6386 5.67488 12.9655 5.4941 13.1511C5.29731 13.3532 5.05624 13.4468 4.82787 13.5306L5 14ZM6.36364 12H6.86364C6.86364 11.0328 6.4452 10.4016 6.01153 10.0212C5.80005 9.83572 5.58952 9.71316 5.43096 9.63639C5.35123 9.59779 5.28325 9.57009 5.23288 9.55135C5.20764 9.54197 5.18668 9.53478 5.17071 9.52956C5.16271 9.52694 5.15596 9.52482 5.15052 9.52315C5.1478 9.52232 5.14541 9.5216 5.14336 9.52099C5.14233 9.52068 5.14139 9.52041 5.14054 9.52016C5.14011 9.52003 5.1397 9.51991 5.13932 9.5198C5.13913 9.51975 5.13886 9.51967 5.13876 9.51964C5.13849 9.51956 5.13823 9.51949 5 10C4.86177 10.4805 4.86152 10.4804 4.86127 10.4804C4.8612 10.4803 4.86096 10.4803 4.86081 10.4802C4.8605 10.4801 4.86022 10.4801 4.85996 10.48C4.85944 10.4798 4.85899 10.4797 4.85862 10.4796C4.85788 10.4794 4.85744 10.4792 4.85731 10.4792C4.85703 10.4791 4.85793 10.4794 4.85992 10.48C4.86392 10.4813 4.87226 10.4842 4.88431 10.4886C4.90851 10.4976 4.94706 10.5131 4.99518 10.5364C5.0923 10.5835 5.22268 10.6595 5.3521 10.773C5.60025 10.9907 5.86364 11.3595 5.86364 12H6.36364ZM7 19V18.5C6.17157 18.5 5.5 17.8284 5.5 17H5H4.5C4.5 18.3807 5.61929 19.5 7 19.5V19ZM18 5V5.5C18.8284 5.5 19.5 6.17157 19.5 7H20H20.5C20.5 5.61929 19.3807 4.5 18 4.5V5ZM20 17H19.5C19.5 17.8284 18.8284 18.5 18 18.5V19V19.5C19.3807 19.5 20.5 18.3807 20.5 17H20ZM5 7H5.5C5.5 6.17157 6.17157 5.5 7 5.5V5V4.5C5.61929 4.5 4.5 5.61929 4.5 7H5Z" fill="#4C4C4C"/>
<circle cx="15" cy="14" r="1.5" stroke="#4C4C4C"/>
<circle cx="10" cy="9" r="1.5" stroke="#4C4C4C"/>
<line x1="9.9" y1="15.3" x2="15.3" y2="8.1" stroke="#4C4C4C" stroke-linecap="round"/>
</svg>
