<svg width="24" height="24" viewBox="0 0 24 24" fill="none" xmlns="http://www.w3.org/2000/svg">
<rect x="4.5" y="4.5" width="15" height="11.3529" rx="1.5" stroke="#4C4C4C"/>
<line x1="4.94116" y1="13.2061" x2="20" y2="13.2061" stroke="#4C4C4C"/>
<path d="M10.353 16.353L9.41187 18.1177" stroke="#4C4C4C" stroke-linecap="round"/>
<path d="M14.1177 16.353L15.0588 18.1177" stroke="#4C4C4C" stroke-linecap="round"/>
<line x1="8.26465" y1="18.5" x2="16.6764" y2="18.5" stroke="#4C4C4C" stroke-linecap="round"/>
<path d="M14.6286 8.20557L15.0376 9.51962L15.4098 8.2982C15.4497 8.17038 15.4788 8.0835 15.4972 8.03754C15.5171 7.99015 15.5531 7.94563 15.6052 7.90398C15.6588 7.8609 15.7315 7.83936 15.8234 7.83936C15.9169 7.83936 15.9897 7.8609 16.0417 7.90398C16.0953 7.94563 16.1329 7.99158 16.1543 8.04185C16.1758 8.09068 16.2056 8.17613 16.2439 8.2982L16.6162 9.51962L17.0298 8.20557C17.0574 8.11078 17.0796 8.04257 17.0964 8.00092C17.1133 7.95784 17.1416 7.9205 17.1814 7.8889C17.2213 7.85587 17.2787 7.83936 17.3538 7.83936C17.4288 7.83936 17.4939 7.86377 17.5491 7.9126C17.6042 7.96143 17.6318 8.01887 17.6318 8.08493C17.6318 8.14525 17.6081 8.23644 17.5606 8.35851L17.0482 9.76735C17.0037 9.88655 16.9693 9.97271 16.9448 10.0259C16.9203 10.079 16.8812 10.1264 16.8276 10.168C16.7755 10.2097 16.7035 10.2305 16.6116 10.2305C16.5166 10.2305 16.4415 10.2082 16.3864 10.1637C16.3328 10.1192 16.293 10.0646 16.2669 10C16.2409 9.93537 16.2125 9.85136 16.1819 9.74796L15.8234 8.60194L15.4765 9.74796C15.4305 9.90737 15.3807 10.028 15.3271 10.1099C15.2735 10.1903 15.1793 10.2305 15.0445 10.2305C14.9756 10.2305 14.9166 10.2176 14.8676 10.1917C14.8201 10.1673 14.7802 10.1321 14.7481 10.0862C14.7159 10.0388 14.6876 9.98348 14.6631 9.9203C14.6385 9.85567 14.6194 9.80469 14.6056 9.76735L14.0978 8.35851C14.0472 8.22639 14.022 8.1352 14.022 8.08493C14.022 8.02174 14.0488 7.96502 14.1024 7.91475C14.156 7.86449 14.2219 7.83936 14.3 7.83936C14.4042 7.83936 14.4746 7.86736 14.5114 7.92337C14.5482 7.97794 14.5872 8.07201 14.6286 8.20557Z" fill="#4C4C4C"/>
<path d="M10.8005 8.20557L11.2095 9.51962L11.5817 8.2982C11.6215 8.17038 11.6506 8.0835 11.669 8.03754C11.6889 7.99015 11.7249 7.94563 11.777 7.90398C11.8306 7.8609 11.9034 7.83936 11.9953 7.83936C12.0888 7.83936 12.1615 7.8609 12.2136 7.90398C12.2672 7.94563 12.3048 7.99158 12.3262 8.04185C12.3476 8.09068 12.3775 8.17613 12.4158 8.2982L12.7881 9.51962L13.2017 8.20557C13.2292 8.11078 13.2514 8.04257 13.2683 8.00092C13.2851 7.95784 13.3135 7.9205 13.3533 7.8889C13.3931 7.85587 13.4506 7.83936 13.5256 7.83936C13.6007 7.83936 13.6658 7.86377 13.721 7.9126C13.7761 7.96143 13.8037 8.01887 13.8037 8.08493C13.8037 8.14525 13.7799 8.23644 13.7325 8.35851L13.22 9.76735C13.1756 9.88655 13.1412 9.97271 13.1166 10.0259C13.0921 10.079 13.0531 10.1264 12.9995 10.168C12.9474 10.2097 12.8754 10.2305 12.7835 10.2305C12.6885 10.2305 12.6134 10.2082 12.5583 10.1637C12.5047 10.1192 12.4648 10.0646 12.4388 10C12.4128 9.93537 12.3844 9.85136 12.3538 9.74796L11.9953 8.60194L11.6484 9.74796C11.6024 9.90737 11.5526 10.028 11.499 10.1099C11.4454 10.1903 11.3512 10.2305 11.2164 10.2305C11.1474 10.2305 11.0885 10.2176 11.0394 10.1917C10.9919 10.1673 10.9521 10.1321 10.92 10.0862C10.8878 10.0388 10.8594 9.98348 10.8349 9.9203C10.8104 9.85567 10.7913 9.80469 10.7775 9.76735L10.2697 8.35851C10.2191 8.22639 10.1938 8.1352 10.1938 8.08493C10.1938 8.02174 10.2207 7.96502 10.2743 7.91475C10.3279 7.86449 10.3938 7.83936 10.4719 7.83936C10.576 7.83936 10.6465 7.86736 10.6833 7.92337C10.72 7.97794 10.7591 8.07201 10.8005 8.20557Z" fill="#4C4C4C"/>
<path d="M6.97234 8.20557L7.38135 9.51962L7.75359 8.2982C7.79342 8.17038 7.82252 8.0835 7.84091 8.03754C7.86082 7.99015 7.89682 7.94563 7.9489 7.90398C8.00252 7.8609 8.07528 7.83936 8.16719 7.83936C8.26064 7.83936 8.3334 7.8609 8.38548 7.90398C8.4391 7.94563 8.47663 7.99158 8.49808 8.04185C8.51952 8.09068 8.54939 8.17613 8.58769 8.2982L8.95993 9.51962L9.37354 8.20557C9.40111 8.11078 9.42332 8.04257 9.44017 8.00092C9.45702 7.95784 9.48536 7.9205 9.52519 7.8889C9.56502 7.85587 9.62246 7.83936 9.69752 7.83936C9.77259 7.83936 9.83769 7.86377 9.89284 7.9126C9.94798 7.96143 9.97556 8.01887 9.97556 8.08493C9.97556 8.14525 9.95181 8.23644 9.90433 8.35851L9.39192 9.76735C9.34749 9.88655 9.31303 9.97271 9.28852 10.0259C9.26401 10.079 9.22494 10.1264 9.17133 10.168C9.11925 10.2097 9.04725 10.2305 8.95534 10.2305C8.86036 10.2305 8.7853 10.2082 8.73015 10.1637C8.67654 10.1192 8.63671 10.0646 8.61067 10C8.58463 9.93537 8.55629 9.85136 8.52565 9.74796L8.16719 8.60194L7.82023 9.74796C7.77427 9.90737 7.72448 10.028 7.67087 10.1099C7.61725 10.1903 7.52304 10.2305 7.38824 10.2305C7.31931 10.2305 7.26033 10.2176 7.21131 10.1917C7.16382 10.1673 7.12399 10.1321 7.09183 10.0862C7.05966 10.0388 7.03132 9.98348 7.00681 9.9203C6.9823 9.85567 6.96315 9.80469 6.94936 9.76735L6.44155 8.35851C6.391 8.22639 6.36572 8.1352 6.36572 8.08493C6.36572 8.02174 6.39253 7.96502 6.44615 7.91475C6.49976 7.86449 6.56563 7.83936 6.64376 7.83936C6.74792 7.83936 6.81839 7.86736 6.85515 7.92337C6.89192 7.97794 6.93098 8.07201 6.97234 8.20557Z" fill="#4C4C4C"/>
</svg>
